<svg width="989" height="989" viewBox="0 0 989 989" fill="none" xmlns="http://www.w3.org/2000/svg">
<path d="M618.125 844.771L535.708 927.188H453.292L370.875 844.771V432.688H618.125V597.521L576.917 638.729L618.125 679.938V721.146L576.917 762.354L618.125 803.562V844.771Z" fill="#DF447A"/>
<path d="M782.958 160.712C772.656 123.625 741.75 96.8396 706.723 86.5375C657.273 76.2354 581.037 61.8125 494.5 61.8125C407.963 61.8125 331.727 76.2354 282.277 86.5375C247.25 96.8396 216.344 123.625 206.042 160.712C195.74 195.74 185.438 245.19 185.438 298.76C185.438 352.331 195.74 401.781 206.042 436.808C216.344 473.896 245.19 500.681 282.277 508.923C331.727 521.285 407.963 535.708 494.5 535.708C581.037 535.708 657.273 521.285 706.723 510.983C743.81 502.742 772.656 473.896 782.958 438.869C793.26 403.842 803.562 354.392 803.562 300.821C803.562 245.19 793.26 195.74 782.958 160.712ZM597.521 267.854H391.479C368.815 267.854 350.271 249.31 350.271 226.646V185.438C350.271 173.075 414.144 164.833 494.5 164.833C574.856 164.833 638.729 173.075 638.729 185.438V226.646C638.729 249.31 620.185 267.854 597.521 267.854Z" fill="#DF447A"/>
<path d="M473.896 535.708H515.104V927.188H473.896V535.708Z" fill="#584372"/>
</svg>
